PathFileType	3	(X/Y/Z)	random_1__view1_aligned.trc
DataRate	CameraRate	NumFrames	NumMarkers	Units	OrigDataRate	OrigDataStartFrame	OrigNumFrames
100.0	100.0	14	19	mm	100.0	1131	1930
Frame#	Time	pelvis			neck			head			hip_left			hip_right			knee_left			knee_right			ankle_left			ankle_right			heel_left			heel_right			toe_left			toe_right			shoulder_left			shoulder_right			elbow_left			elbow_right			wrist_left			wrist_right			
		X1	Y1	Z1	X2	Y2	Z2	X3	Y3	Z3	X4	Y4	Z4	X5	Y5	Z5	X6	Y6	Z6	X7	Y7	Z7	X8	Y8	Z8	X9	Y9	Z9	X10	Y10	Z10	X11	Y11	Z11	X12	Y12	Z12	X13	Y13	Z13	X14	Y14	Z14	X15	Y15	Z15	X16	Y16	Z16	X17	Y17	Z17	X18	Y18	Z18	X19	Y19	Z19	
1131	11.30000	94.656430	971.138866	58.493961	260.308389	1498.237758	112.769471	423.096776	1497.170371	122.761410	103.893861	967.841322	-16.731318	85.418904	974.436403	133.719316	202.648738	530.134074	-34.810662	249.060887	558.458640	177.634530	81.211510	130.311183	-64.734346	129.856897	157.121078	183.395626	40.458418	86.239412	-71.619282	85.376815	118.044841	186.786445	256.287946	50.705905	-27.153171	287.839814	50.544520	133.882555	246.769509	1510.437474	-66.377527	172.798227	1432.739222	267.372356	57.409345	1347.258255	-203.023614	-33.180539	1240.999297	211.207135	21.572975	1103.039231	-208.181152	-161.006585	1022.312238	123.970152
1132	11.31000	94.030014	971.162262	58.553895	258.879051	1498.186410	112.636405	421.842100	1497.875069	120.824725	102.871741	967.860652	-16.715413	85.188175	974.463864	133.823294	203.375371	530.215724	-35.208107	249.992139	558.487917	177.241731	81.356974	130.435403	-64.946113	130.264656	157.190289	183.458997	40.569908	86.375786	-71.743592	85.777801	118.125614	186.982334	256.479785	50.827347	-27.690378	288.082009	50.641880	133.446160	243.779492	1511.563830	-66.206735	172.678317	1431.295748	267.734948	56.142071	1346.310477	-203.370307	-32.053845	1237.315634	212.910152	26.275841	1100.839194	-209.180934	-158.609189	1016.417951	126.034633
1133	11.32000	93.403599	971.185658	58.613829	257.449712	1498.135063	112.503339	420.587424	1498.579766	118.888040	101.849621	967.879982	-16.699508	84.957445	974.491326	133.927272	204.102004	530.297375	-35.605552	250.923391	558.517194	176.848932	81.502437	130.559622	-65.157881	130.672415	157.259501	183.522368	40.681397	86.512160	-71.867901	86.178787	118.206387	187.178222	256.671624	50.948789	-28.227585	288.324203	50.739240	133.009765	240.789476	1512.690186	-66.035943	172.558406	1429.852274	268.097541	54.874798	1345.362700	-203.717001	-30.927151	1233.631972	214.613170	30.978707	1098.639157	-210.180716	-156.211793	1010.523664	128.099114
1134	11.33000	92.777184	971.209055	58.673763	256.020374	1498.083715	112.370273	419.332748	1499.284464	116.951355	100.827501	967.899312	-16.683603	84.726716	974.518787	134.031250	204.828636	530.379026	-36.002997	251.854644	558.546471	176.456133	81.647900	130.683842	-65.369649	131.080174	157.328713	183.585739	40.792887	86.648534	-71.992210	86.579772	118.287160	187.374111	256.863463	51.070230	-28.764792	288.566398	50.836600	132.573369	237.799459	1513.816542	-65.865151	172.438496	1428.408800	268.460133	53.607524	1344.414922	-204.063694	-29.800456	1229.948309	216.316187	35.681572	1096.439120	-211.180498	-153.814397	1004.629377	130.163594
1135	11.34000	92.150769	971.232451	58.733697	254.591036	1498.032367	112.237207	418.078072	1499.989161	115.014670	99.805381	967.918642	-16.667698	84.495987	974.546249	134.135229	205.555269	530.460677	-36.400442	252.785896	558.575748	176.063334	81.793363	130.808061	-65.581417	131.487934	157.397924	183.649111	40.904377	86.784908	-72.116520	86.980758	118.367933	187.570000	257.055303	51.191672	-29.301999	288.808592	50.933960	132.136974	234.809443	1514.942897	-65.694359	172.318586	1426.965326	268.822726	52.340251	1343.467144	-204.410387	-28.673762	1226.264646	218.019205	40.384438	1094.239083	-212.180280	-151.417001	998.735090	132.228075
1136	11.35000	91.524353	971.255847	58.793631	253.161698	1497.981020	112.104141	416.823396	1500.693859	113.077985	98.783261	967.937973	-16.651793	84.265257	974.573710	134.239207	206.281902	530.542327	-36.797888	253.717149	558.605026	175.670535	81.938827	130.932281	-65.793185	131.895693	157.467136	183.712482	41.015867	86.921282	-72.240829	87.381744	118.448706	187.765888	257.247142	51.313114	-29.839206	289.050787	51.031320	131.700579	231.819426	1516.069253	-65.523567	172.198675	1425.521852	269.185319	51.072977	1342.519367	-204.757081	-27.547068	1222.580984	219.722222	45.087304	1092.039047	-213.180062	-149.019604	992.840803	134.292556
1137	11.36000	90.541604	971.157034	58.987350	252.045723	1497.856617	111.798635	415.845149	1501.541107	110.976976	97.476974	967.789428	-16.561344	83.606065	974.524629	134.536181	206.683493	530.617425	-36.940928	253.960201	558.632125	175.707017	81.814408	130.997281	-65.735561	131.630022	157.514255	184.527804	40.839671	87.000392	-72.103549	87.088030	118.535183	188.755189	257.149400	51.406425	-30.028978	288.454516	50.841562	131.881041	229.472274	1516.573431	-65.646697	171.734863	1424.918577	269.356566	51.072324	1341.582389	-205.849142	-28.228150	1221.295484	222.694422	51.065451	1090.119846	-214.159660	-145.483933	988.678986	141.079312
1138	11.37000	89.558854	971.058221	59.181070	250.929748	1497.732214	111.493129	414.866902	1502.388355	108.875967	96.170686	967.640883	-16.470894	82.946872	974.475548	134.833156	207.085084	530.692524	-37.083967	254.203253	558.659224	175.743499	81.689989	131.062282	-65.677937	131.364352	157.561375	185.343126	40.663475	87.079502	-71.966268	86.794317	118.621659	189.744490	257.051658	51.499735	-30.218750	287.858246	50.651804	132.061504	227.125122	1517.077608	-65.769828	171.271051	1424.315302	269.527813	51.071671	1340.645412	-206.941204	-28.909231	1220.009985	225.666622	57.043599	1088.200645	-215.139257	-141.948261	984.517169	147.866067
1139	11.38000	88.576105	970.959407	59.374790	249.813774	1497.607811	111.187624	413.888655	1503.235604	106.774958	94.864398	967.492338	-16.380444	82.287680	974.426468	135.130131	207.486675	530.767622	-37.227007	254.446306	558.686324	175.779981	81.565570	131.127282	-65.620313	131.098681	157.608494	186.158448	40.487279	87.158612	-71.828988	86.500603	118.708135	190.733790	256.953916	51.593046	-30.408522	287.261976	50.462046	132.241966	224.777970	1517.581786	-65.892958	170.807239	1423.712027	269.699060	51.071018	1339.708434	-208.033265	-29.590313	1218.724485	228.638822	63.021746	1086.281444	-216.118855	-138.412589	980.355352	154.652822
1140	11.39000	87.593355	970.860594	59.568510	248.697799	1497.483408	110.882118	412.910407	1504.082852	104.673949	93.558110	967.343794	-16.289994	81.628487	974.377387	135.427105	207.888265	530.842720	-37.370047	254.689358	558.713423	175.816463	81.441152	131.192283	-65.562689	130.833011	157.655614	186.973770	40.311083	87.237722	-71.691707	86.206890	118.794612	191.723091	256.856174	51.686357	-30.598294	286.665705	50.272288	132.422429	222.430818	1518.085963	-66.016088	170.343427	1423.108752	269.870307	51.070365	1338.771457	-209.125327	-30.271395	1217.438985	231.611022	68.999894	1084.362243	-217.098452	-134.876917	976.193535	161.439578
1141	11.40000	86.610606	970.761781	59.762230	247.581824	1497.359005	110.576612	411.932160	1504.930100	102.572940	92.251823	967.195249	-16.199544	80.969295	974.328306	135.724080	208.289856	530.917818	-37.513087	254.932411	558.740523	175.852945	81.316733	131.257283	-65.505066	130.567340	157.702733	187.789092	40.134886	87.316832	-71.554427	85.913176	118.881088	192.712391	256.758432	51.779667	-30.788066	286.069435	50.082530	132.602891	220.083666	1518.590141	-66.139219	169.879615	1422.505478	270.041555	51.069712	1337.834479	-210.217389	-30.952477	1216.153486	234.583222	74.978041	1082.443043	-218.078050	-131.341245	972.031717	168.226333
1142	11.41000	85.627856	970.662967	59.955949	246.465849	1497.234602	110.271107	410.953913	1505.777348	100.471931	90.945535	967.046704	-16.109095	80.310102	974.279226	136.021054	208.691447	530.992916	-37.656127	255.175463	558.767622	175.889427	81.192314	131.322283	-65.447442	130.301670	157.749853	188.604413	39.958690	87.395941	-71.417146	85.619463	118.967565	193.701692	256.660689	51.872978	-30.977838	285.473164	49.892772	132.783353	217.736514	1519.094318	-66.262349	169.415803	1421.902203	270.212802	51.069059	1336.897501	-211.309450	-31.633558	1214.867986	237.555422	80.956189	1080.523842	-219.057647	-127.805573	967.869900	175.013089
1143	11.42000	84.645107	970.564154	60.149669	245.349875	1497.110200	109.965601	409.975666	1506.624597	98.370922	89.639247	966.898159	-16.018645	79.650910	974.230145	136.318029	209.093038	531.068014	-37.799167	255.418515	558.794722	175.925910	81.067895	131.387284	-65.389818	130.035999	157.796972	189.419735	39.782494	87.475051	-71.279866	85.325749	119.054041	194.690993	256.562947	51.966289	-31.167610	284.876894	49.703015	132.963816	215.389362	1519.598496	-66.385480	168.951990	1421.298928	270.384049	51.068406	1335.960524	-212.401512	-32.314640	1213.582487	240.527622	86.934336	1078.604641	-220.037244	-124.269901	963.708083	181.799844
1144	11.43000	83.662357	970.465340	60.343389	244.233900	1496.985797	109.660095	408.997419	1507.471845	96.269913	88.332959	966.749614	-15.928195	78.991717	974.181064	136.615004	209.494629	531.143113	-37.942207	255.661568	558.821821	175.962392	80.943477	131.452284	-65.332194	129.770329	157.844092	190.235057	39.606298	87.554161	-71.142586	85.032036	119.140518	195.680293	256.465205	52.059599	-31.357382	284.280624	49.513257	133.144278	213.042210	1520.102673	-66.508610	168.488178	1420.695653	270.555296	51.067753	1335.023546	-213.493573	-32.995722	1212.296987	243.499822	92.912484	1076.685440	-221.016842	-120.734229	959.546266	188.586600
